<?xml version="1.0" ?>
<!DOCTYPE svg  PUBLIC '-//W3C//DTD SVG 1.1//EN'  'http://www.w3.org/Graphics/SVG/1.1/DTD/svg11.dtd'>
<!-- Uploaded to: SVG Repo, www.svgrepo.com, Generator: SVG Repo Mixer Tools -->
<svg fill="#000000" width="800px" height="800px" viewBox="0 0 32 32" style="fill-rule:evenodd;clip-rule:evenodd;stroke-linejoin:round;stroke-miterlimit:2;" version="1.1" xml:space="preserve" xmlns="http://www.w3.org/2000/svg" xmlns:serif="http://www.serif.com/" xmlns:xlink="http://www.w3.org/1999/xlink">
<g id="Icon">
<path d="M19.38,9.139l-2.061,-1.539c-0.213,-0.159 -0.481,-0.227 -0.745,-0.188c-0.263,0.039 -0.5,0.182 -0.658,0.396l-1.638,2.223c-0.358,-0.038 -0.722,-0.058 -1.09,-0.058c-5.564,0 -10.077,4.489 -10.077,10.014c0,5.524 4.513,10.013 10.077,10.013c5.563,0 10.076,-4.489 10.076,-10.013c-0,-1.709 -0.432,-3.318 -1.192,-4.725l1.29,-1.981c0.288,-0.442 0.183,-1.031 -0.24,-1.347l-2.137,-1.596l0.478,-0.574c0,0 1.968,-0.529 1.968,-0.529c0.224,-0.06 0.42,-0.196 0.554,-0.385l1.083,-1.516c0.321,-0.449 0.217,-1.074 -0.233,-1.395c-0.449,-0.321 -1.074,-0.216 -1.394,0.233l-0.875,1.225c-0,-0 -1.928,0.518 -1.928,0.518c-0.198,0.053 -0.376,0.167 -0.508,0.325l-0.75,0.899Zm-1.762,4.148c-1.272,-0.83 -2.795,-1.314 -4.43,-1.314c-4.456,0 -8.077,3.589 -8.077,8.014c0,4.424 3.621,8.013 8.077,8.013c4.455,0 8.076,-3.589 8.076,-8.013c-0,-1.527 -0.431,-2.954 -1.179,-4.168c-0.239,-0.287 -1.461,-1.732 -2.467,-2.532Zm1.327,-1.976l-2.016,-1.506c-0,-0 -0.499,0.676 -0.498,0.676c0.8,0.31 1.776,0.739 2.356,1.181c0.767,0.511 1.46,1.124 2.058,1.819l0.329,-0.506l-2.229,-1.664Zm9.552,-3.044l-1.757,-1.008c-0.479,-0.275 -1.091,-0.109 -1.365,0.37c-0.275,0.479 -0.109,1.09 0.37,1.365l1.758,1.008c0.478,0.274 1.09,0.108 1.365,-0.371c0.274,-0.478 0.108,-1.09 -0.371,-1.364Zm-5.736,-3.463l-1.757,-1.008c-0.479,-0.274 -1.091,-0.108 -1.365,0.37c-0.275,0.479 -0.109,1.091 0.37,1.365l1.758,1.008c0.478,0.275 1.09,0.109 1.364,-0.37c0.275,-0.479 0.109,-1.09 -0.37,-1.365Zm2.776,-2.111l-1.014,1.745c-0.278,0.477 -0.116,1.09 0.362,1.367c0.477,0.278 1.089,0.116 1.367,-0.362l1.014,-1.745c0.278,-0.477 0.116,-1.09 -0.361,-1.367c-0.478,-0.278 -1.09,-0.115 -1.368,0.362Z"/>
</g>
</svg>